<svg id="visual" viewBox="0 0 900 900" width="900" height="900" xmlns="http://www.w3.org/2000/svg" xmlns:xlink="http://www.w3.org/1999/xlink" version="1.1"><path d="M0 64L21.5 61C43 58 86 52 128.8 52C171.7 52 214.3 58 257.2 61C300 64 343 64 385.8 65.5C428.7 67 471.3 70 514.2 70C557 70 600 67 642.8 62.5C685.7 58 728.3 52 771.2 50.5C814 49 857 52 878.5 53.5L900 55L900 0L878.5 0C857 0 814 0 771.2 0C728.3 0 685.7 0 642.8 0C600 0 557 0 514.2 0C471.3 0 428.7 0 385.8 0C343 0 300 0 257.2 0C214.3 0 171.7 0 128.8 0C86 0 43 0 21.5 0L0 0Z" fill="#591c4a"></path><path d="M0 226L21.5 221.5C43 217 86 208 128.8 202C171.7 196 214.3 193 257.2 200.5C300 208 343 226 385.8 241C428.7 256 471.3 268 514.2 269.5C557 271 600 262 642.8 242.5C685.7 223 728.3 193 771.2 184C814 175 857 187 878.5 193L900 199L900 53L878.5 51.5C857 50 814 47 771.2 48.5C728.3 50 685.7 56 642.8 60.5C600 65 557 68 514.2 68C471.3 68 428.7 65 385.8 63.5C343 62 300 62 257.2 59C214.3 56 171.7 50 128.8 50C86 50 43 56 21.5 59L0 62Z" fill="#6e2a4f"></path><path d="M0 262L21.5 259C43 256 86 250 128.8 244C171.7 238 214.3 232 257.2 239.5C300 247 343 268 385.8 284.5C428.7 301 471.3 313 514.2 313C557 313 600 301 642.8 278.5C685.7 256 728.3 223 771.2 215.5C814 208 857 226 878.5 235L900 244L900 197L878.5 191C857 185 814 173 771.2 182C728.3 191 685.7 221 642.8 240.5C600 260 557 269 514.2 267.5C471.3 266 428.7 254 385.8 239C343 224 300 206 257.2 198.5C214.3 191 171.7 194 128.8 200C86 206 43 215 21.5 219.5L0 224Z" fill="#813a54"></path><path d="M0 316L21.5 314.5C43 313 86 310 128.8 304C171.7 298 214.3 289 257.2 295C300 301 343 322 385.8 338.5C428.7 355 471.3 367 514.2 371.5C557 376 600 373 642.8 359.5C685.7 346 728.3 322 771.2 311.5C814 301 857 304 878.5 305.5L900 307L900 242L878.5 233C857 224 814 206 771.2 213.5C728.3 221 685.7 254 642.8 276.5C600 299 557 311 514.2 311C471.3 311 428.7 299 385.8 282.5C343 266 300 245 257.2 237.5C214.3 230 171.7 236 128.8 242C86 248 43 254 21.5 257L0 260Z" fill="#924b59"></path><path d="M0 361L21.5 356.5C43 352 86 343 128.8 337C171.7 331 214.3 328 257.2 337C300 346 343 367 385.8 380.5C428.7 394 471.3 400 514.2 401.5C557 403 600 400 642.8 388C685.7 376 728.3 355 771.2 344.5C814 334 857 334 878.5 334L900 334L900 305L878.5 303.5C857 302 814 299 771.2 309.5C728.3 320 685.7 344 642.8 357.5C600 371 557 374 514.2 369.5C471.3 365 428.7 353 385.8 336.5C343 320 300 299 257.2 293C214.3 287 171.7 296 128.8 302C86 308 43 311 21.5 312.5L0 314Z" fill="#a25d60"></path><path d="M0 442L21.5 433C43 424 86 406 128.8 400C171.7 394 214.3 400 257.2 412C300 424 343 442 385.8 452.5C428.7 463 471.3 466 514.2 469C557 472 600 475 642.8 466C685.7 457 728.3 436 771.2 427C814 418 857 421 878.5 422.5L900 424L900 332L878.5 332C857 332 814 332 771.2 342.5C728.3 353 685.7 374 642.8 386C600 398 557 401 514.2 399.5C471.3 398 428.7 392 385.8 378.5C343 365 300 344 257.2 335C214.3 326 171.7 329 128.8 335C86 341 43 350 21.5 354.5L0 359Z" fill="#b07068"></path><path d="M0 523L21.5 518.5C43 514 86 505 128.8 505C171.7 505 214.3 514 257.2 526C300 538 343 553 385.8 566.5C428.7 580 471.3 592 514.2 599.5C557 607 600 610 642.8 595C685.7 580 728.3 547 771.2 532C814 517 857 520 878.5 521.5L900 523L900 422L878.5 420.5C857 419 814 416 771.2 425C728.3 434 685.7 455 642.8 464C600 473 557 470 514.2 467C471.3 464 428.7 461 385.8 450.5C343 440 300 422 257.2 410C214.3 398 171.7 392 128.8 398C86 404 43 422 21.5 431L0 440Z" fill="#bd8372"></path><path d="M0 757L21.5 752.5C43 748 86 739 128.8 739C171.7 739 214.3 748 257.2 751C300 754 343 751 385.8 748C428.7 745 471.3 742 514.2 748C557 754 600 769 642.8 767.5C685.7 766 728.3 748 771.2 746.5C814 745 857 760 878.5 767.5L900 775L900 521L878.5 519.5C857 518 814 515 771.2 530C728.3 545 685.7 578 642.8 593C600 608 557 605 514.2 597.5C471.3 590 428.7 578 385.8 564.5C343 551 300 536 257.2 524C214.3 512 171.7 503 128.8 503C86 503 43 512 21.5 516.5L0 521Z" fill="#c9977e"></path><path d="M0 811L21.5 808C43 805 86 799 128.8 800.5C171.7 802 214.3 811 257.2 812.5C300 814 343 808 385.8 803.5C428.7 799 471.3 796 514.2 802C557 808 600 823 642.8 823C685.7 823 728.3 808 771.2 805C814 802 857 811 878.5 815.5L900 820L900 773L878.5 765.5C857 758 814 743 771.2 744.5C728.3 746 685.7 764 642.8 765.5C600 767 557 752 514.2 746C471.3 740 428.7 743 385.8 746C343 749 300 752 257.2 749C214.3 746 171.7 737 128.8 737C86 737 43 746 21.5 750.5L0 755Z" fill="#d3ab8d"></path><path d="M0 847L21.5 845.5C43 844 86 841 128.8 842.5C171.7 844 214.3 850 257.2 851.5C300 853 343 850 385.8 847C428.7 844 471.3 841 514.2 844C557 847 600 856 642.8 856C685.7 856 728.3 847 771.2 844C814 841 857 844 878.5 845.5L900 847L900 818L878.5 813.5C857 809 814 800 771.2 803C728.3 806 685.7 821 642.8 821C600 821 557 806 514.2 800C471.3 794 428.7 797 385.8 801.5C343 806 300 812 257.2 810.5C214.3 809 171.7 800 128.8 798.5C86 797 43 803 21.5 806L0 809Z" fill="#dec09d"></path><path d="M0 901L21.5 901C43 901 86 901 128.8 901C171.7 901 214.3 901 257.2 901C300 901 343 901 385.8 901C428.7 901 471.3 901 514.2 901C557 901 600 901 642.8 901C685.7 901 728.3 901 771.2 901C814 901 857 901 878.5 901L900 901L900 845L878.5 843.5C857 842 814 839 771.2 842C728.3 845 685.7 854 642.8 854C600 854 557 845 514.2 842C471.3 839 428.7 842 385.8 845C343 848 300 851 257.2 849.5C214.3 848 171.7 842 128.8 840.5C86 839 43 842 21.5 843.5L0 845Z" fill="#e8d4b0"></path></svg>