<svg id="visual" viewBox="0 0 900 900" width="900" height="900" xmlns="http://www.w3.org/2000/svg" xmlns:xlink="http://www.w3.org/1999/xlink" version="1.1"><path d="M0 109L21.5 104.5C43 100 86 91 128.8 91C171.7 91 214.3 100 257.2 103C300 106 343 103 385.8 98.5C428.7 94 471.3 88 514.2 94C557 100 600 118 642.8 127C685.7 136 728.3 136 771.2 125.5C814 115 857 94 878.5 83.5L900 73L900 0L878.5 0C857 0 814 0 771.2 0C728.3 0 685.7 0 642.8 0C600 0 557 0 514.2 0C471.3 0 428.7 0 385.8 0C343 0 300 0 257.2 0C214.3 0 171.7 0 128.8 0C86 0 43 0 21.5 0L0 0Z" fill="#591c4a"></path><path d="M0 172L21.5 169C43 166 86 160 128.8 158.5C171.7 157 214.3 160 257.2 163C300 166 343 169 385.8 169C428.7 169 471.3 166 514.2 170.5C557 175 600 187 642.8 191.5C685.7 196 728.3 193 771.2 182.5C814 172 857 154 878.5 145L900 136L900 71L878.5 81.5C857 92 814 113 771.2 123.5C728.3 134 685.7 134 642.8 125C600 116 557 98 514.2 92C471.3 86 428.7 92 385.8 96.5C343 101 300 104 257.2 101C214.3 98 171.7 89 128.8 89C86 89 43 98 21.5 102.5L0 107Z" fill="#6e2a4f"></path><path d="M0 208L21.5 206.5C43 205 86 202 128.8 200.5C171.7 199 214.3 199 257.2 202C300 205 343 211 385.8 211C428.7 211 471.3 205 514.2 212.5C557 220 600 241 642.8 250C685.7 259 728.3 256 771.2 241C814 226 857 199 878.5 185.5L900 172L900 134L878.5 143C857 152 814 170 771.2 180.5C728.3 191 685.7 194 642.8 189.5C600 185 557 173 514.2 168.5C471.3 164 428.7 167 385.8 167C343 167 300 164 257.2 161C214.3 158 171.7 155 128.8 156.5C86 158 43 164 21.5 167L0 170Z" fill="#813a54"></path><path d="M0 244L21.5 245.5C43 247 86 250 128.8 248.5C171.7 247 214.3 241 257.2 239.5C300 238 343 241 385.8 241C428.7 241 471.3 238 514.2 247C557 256 600 277 642.8 286C685.7 295 728.3 292 771.2 278.5C814 265 857 241 878.5 229L900 217L900 170L878.5 183.5C857 197 814 224 771.2 239C728.3 254 685.7 257 642.8 248C600 239 557 218 514.2 210.5C471.3 203 428.7 209 385.8 209C343 209 300 203 257.2 200C214.3 197 171.7 197 128.8 198.5C86 200 43 203 21.5 204.5L0 206Z" fill="#924b59"></path><path d="M0 307L21.5 316C43 325 86 343 128.8 343C171.7 343 214.3 325 257.2 320.5C300 316 343 325 385.8 328C428.7 331 471.3 328 514.2 334C557 340 600 355 642.8 362.5C685.7 370 728.3 370 771.2 362.5C814 355 857 340 878.5 332.5L900 325L900 215L878.5 227C857 239 814 263 771.2 276.5C728.3 290 685.7 293 642.8 284C600 275 557 254 514.2 245C471.3 236 428.7 239 385.8 239C343 239 300 236 257.2 237.5C214.3 239 171.7 245 128.8 246.5C86 248 43 245 21.5 243.5L0 242Z" fill="#a25d60"></path><path d="M0 541L21.5 551.5C43 562 86 583 128.8 586C171.7 589 214.3 574 257.2 562C300 550 343 541 385.8 529C428.7 517 471.3 502 514.2 508C557 514 600 541 642.8 545.5C685.7 550 728.3 532 771.2 529C814 526 857 538 878.5 544L900 550L900 323L878.5 330.5C857 338 814 353 771.2 360.5C728.3 368 685.7 368 642.8 360.5C600 353 557 338 514.2 332C471.3 326 428.7 329 385.8 326C343 323 300 314 257.2 318.5C214.3 323 171.7 341 128.8 341C86 341 43 323 21.5 314L0 305Z" fill="#b07068"></path><path d="M0 577L21.5 586C43 595 86 613 128.8 617.5C171.7 622 214.3 613 257.2 604C300 595 343 586 385.8 572.5C428.7 559 471.3 541 514.2 544C557 547 600 571 642.8 577C685.7 583 728.3 571 771.2 568C814 565 857 571 878.5 574L900 577L900 548L878.5 542C857 536 814 524 771.2 527C728.3 530 685.7 548 642.8 543.5C600 539 557 512 514.2 506C471.3 500 428.7 515 385.8 527C343 539 300 548 257.2 560C214.3 572 171.7 587 128.8 584C86 581 43 560 21.5 549.5L0 539Z" fill="#bd8372"></path><path d="M0 631L21.5 638.5C43 646 86 661 128.8 662.5C171.7 664 214.3 652 257.2 644.5C300 637 343 634 385.8 620.5C428.7 607 471.3 583 514.2 584.5C557 586 600 613 642.8 619C685.7 625 728.3 610 771.2 608.5C814 607 857 619 878.5 625L900 631L900 575L878.5 572C857 569 814 563 771.2 566C728.3 569 685.7 581 642.8 575C600 569 557 545 514.2 542C471.3 539 428.7 557 385.8 570.5C343 584 300 593 257.2 602C214.3 611 171.7 620 128.8 615.5C86 611 43 593 21.5 584L0 575Z" fill="#c9977e"></path><path d="M0 694L21.5 700C43 706 86 718 128.8 721C171.7 724 214.3 718 257.2 710.5C300 703 343 694 385.8 679C428.7 664 471.3 643 514.2 646C557 649 600 676 642.8 682C685.7 688 728.3 673 771.2 670C814 667 857 676 878.5 680.5L900 685L900 629L878.5 623C857 617 814 605 771.2 606.5C728.3 608 685.7 623 642.8 617C600 611 557 584 514.2 582.5C471.3 581 428.7 605 385.8 618.5C343 632 300 635 257.2 642.5C214.3 650 171.7 662 128.8 660.5C86 659 43 644 21.5 636.5L0 629Z" fill="#d3ab8d"></path><path d="M0 739L21.5 745C43 751 86 763 128.8 764.5C171.7 766 214.3 757 257.2 749.5C300 742 343 736 385.8 721C428.7 706 471.3 682 514.2 688C557 694 600 730 642.8 739C685.7 748 728.3 730 771.2 727C814 724 857 736 878.5 742L900 748L900 683L878.5 678.5C857 674 814 665 771.2 668C728.3 671 685.7 686 642.8 680C600 674 557 647 514.2 644C471.3 641 428.7 662 385.8 677C343 692 300 701 257.2 708.5C214.3 716 171.7 722 128.8 719C86 716 43 704 21.5 698L0 692Z" fill="#dec09d"></path><path d="M0 901L21.5 901C43 901 86 901 128.8 901C171.7 901 214.3 901 257.2 901C300 901 343 901 385.8 901C428.7 901 471.3 901 514.2 901C557 901 600 901 642.8 901C685.7 901 728.3 901 771.2 901C814 901 857 901 878.5 901L900 901L900 746L878.5 740C857 734 814 722 771.2 725C728.3 728 685.7 746 642.8 737C600 728 557 692 514.2 686C471.3 680 428.7 704 385.8 719C343 734 300 740 257.2 747.5C214.3 755 171.7 764 128.8 762.5C86 761 43 749 21.5 743L0 737Z" fill="#e8d4b0"></path></svg>