<svg id="visual" viewBox="0 0 900 900" width="900" height="900" xmlns="http://www.w3.org/2000/svg" xmlns:xlink="http://www.w3.org/1999/xlink" version="1.1"><path d="M0 46L21.5 46C43 46 86 46 128.8 47.5C171.7 49 214.3 52 257.2 52C300 52 343 49 385.8 46C428.7 43 471.3 40 514.2 41.5C557 43 600 49 642.8 52C685.7 55 728.3 55 771.2 55C814 55 857 55 878.5 55L900 55L900 0L878.5 0C857 0 814 0 771.2 0C728.3 0 685.7 0 642.8 0C600 0 557 0 514.2 0C471.3 0 428.7 0 385.8 0C343 0 300 0 257.2 0C214.3 0 171.7 0 128.8 0C86 0 43 0 21.5 0L0 0Z" fill="#591c4a"></path><path d="M0 82L21.5 85C43 88 86 94 128.8 94C171.7 94 214.3 88 257.2 88C300 88 343 94 385.8 91C428.7 88 471.3 76 514.2 74.5C557 73 600 82 642.8 89.5C685.7 97 728.3 103 771.2 104.5C814 106 857 103 878.5 101.5L900 100L900 53L878.5 53C857 53 814 53 771.2 53C728.3 53 685.7 53 642.8 50C600 47 557 41 514.2 39.5C471.3 38 428.7 41 385.8 44C343 47 300 50 257.2 50C214.3 50 171.7 47 128.8 45.5C86 44 43 44 21.5 44L0 44Z" fill="#6e2a4f"></path><path d="M0 298L21.5 308.5C43 319 86 340 128.8 340C171.7 340 214.3 319 257.2 304C300 289 343 280 385.8 281.5C428.7 283 471.3 295 514.2 293.5C557 292 600 277 642.8 271C685.7 265 728.3 268 771.2 274C814 280 857 289 878.5 293.5L900 298L900 98L878.5 99.5C857 101 814 104 771.2 102.5C728.3 101 685.7 95 642.8 87.5C600 80 557 71 514.2 72.5C471.3 74 428.7 86 385.8 89C343 92 300 86 257.2 86C214.3 86 171.7 92 128.8 92C86 92 43 86 21.5 83L0 80Z" fill="#813a54"></path><path d="M0 433L21.5 436C43 439 86 445 128.8 439C171.7 433 214.3 415 257.2 404.5C300 394 343 391 385.8 394C428.7 397 471.3 406 514.2 406C557 406 600 397 642.8 392.5C685.7 388 728.3 388 771.2 392.5C814 397 857 406 878.5 410.5L900 415L900 296L878.5 291.5C857 287 814 278 771.2 272C728.3 266 685.7 263 642.8 269C600 275 557 290 514.2 291.5C471.3 293 428.7 281 385.8 279.5C343 278 300 287 257.2 302C214.3 317 171.7 338 128.8 338C86 338 43 317 21.5 306.5L0 296Z" fill="#924b59"></path><path d="M0 487L21.5 488.5C43 490 86 493 128.8 488.5C171.7 484 214.3 472 257.2 461.5C300 451 343 442 385.8 443.5C428.7 445 471.3 457 514.2 461.5C557 466 600 463 642.8 458.5C685.7 454 728.3 448 771.2 449.5C814 451 857 460 878.5 464.5L900 469L900 413L878.5 408.5C857 404 814 395 771.2 390.5C728.3 386 685.7 386 642.8 390.5C600 395 557 404 514.2 404C471.3 404 428.7 395 385.8 392C343 389 300 392 257.2 402.5C214.3 413 171.7 431 128.8 437C86 443 43 437 21.5 434L0 431Z" fill="#a25d60"></path><path d="M0 514L21.5 518.5C43 523 86 532 128.8 530.5C171.7 529 214.3 517 257.2 505C300 493 343 481 385.8 482.5C428.7 484 471.3 499 514.2 503.5C557 508 600 502 642.8 496C685.7 490 728.3 484 771.2 484C814 484 857 490 878.5 493L900 496L900 467L878.5 462.5C857 458 814 449 771.2 447.5C728.3 446 685.7 452 642.8 456.5C600 461 557 464 514.2 459.5C471.3 455 428.7 443 385.8 441.5C343 440 300 449 257.2 459.5C214.3 470 171.7 482 128.8 486.5C86 491 43 488 21.5 486.5L0 485Z" fill="#b07068"></path><path d="M0 586L21.5 589C43 592 86 598 128.8 592C171.7 586 214.3 568 257.2 559C300 550 343 550 385.8 554.5C428.7 559 471.3 568 514.2 572.5C557 577 600 577 642.8 571C685.7 565 728.3 553 771.2 550C814 547 857 553 878.5 556L900 559L900 494L878.5 491C857 488 814 482 771.2 482C728.3 482 685.7 488 642.8 494C600 500 557 506 514.2 501.5C471.3 497 428.7 482 385.8 480.5C343 479 300 491 257.2 503C214.3 515 171.7 527 128.8 528.5C86 530 43 521 21.5 516.5L0 512Z" fill="#bd8372"></path><path d="M0 640L21.5 638.5C43 637 86 634 128.8 626.5C171.7 619 214.3 607 257.2 598C300 589 343 583 385.8 586C428.7 589 471.3 601 514.2 605.5C557 610 600 607 642.8 601C685.7 595 728.3 586 771.2 586C814 586 857 595 878.5 599.5L900 604L900 557L878.5 554C857 551 814 545 771.2 548C728.3 551 685.7 563 642.8 569C600 575 557 575 514.2 570.5C471.3 566 428.7 557 385.8 552.5C343 548 300 548 257.2 557C214.3 566 171.7 584 128.8 590C86 596 43 590 21.5 587L0 584Z" fill="#c9977e"></path><path d="M0 784L21.5 787C43 790 86 796 128.8 793C171.7 790 214.3 778 257.2 773.5C300 769 343 772 385.8 776.5C428.7 781 471.3 787 514.2 781C557 775 600 757 642.8 754C685.7 751 728.3 763 771.2 764.5C814 766 857 757 878.5 752.5L900 748L900 602L878.5 597.5C857 593 814 584 771.2 584C728.3 584 685.7 593 642.8 599C600 605 557 608 514.2 603.5C471.3 599 428.7 587 385.8 584C343 581 300 587 257.2 596C214.3 605 171.7 617 128.8 624.5C86 632 43 635 21.5 636.5L0 638Z" fill="#d3ab8d"></path><path d="M0 838L21.5 838C43 838 86 838 128.8 836.5C171.7 835 214.3 832 257.2 827.5C300 823 343 817 385.8 817C428.7 817 471.3 823 514.2 821.5C557 820 600 811 642.8 812.5C685.7 814 728.3 826 771.2 826C814 826 857 814 878.5 808L900 802L900 746L878.5 750.5C857 755 814 764 771.2 762.5C728.3 761 685.7 749 642.8 752C600 755 557 773 514.2 779C471.3 785 428.7 779 385.8 774.5C343 770 300 767 257.2 771.5C214.3 776 171.7 788 128.8 791C86 794 43 788 21.5 785L0 782Z" fill="#dec09d"></path><path d="M0 901L21.5 901C43 901 86 901 128.8 901C171.7 901 214.3 901 257.2 901C300 901 343 901 385.8 901C428.7 901 471.3 901 514.2 901C557 901 600 901 642.8 901C685.7 901 728.3 901 771.2 901C814 901 857 901 878.5 901L900 901L900 800L878.5 806C857 812 814 824 771.2 824C728.3 824 685.7 812 642.8 810.5C600 809 557 818 514.2 819.5C471.3 821 428.7 815 385.8 815C343 815 300 821 257.2 825.5C214.3 830 171.7 833 128.8 834.5C86 836 43 836 21.5 836L0 836Z" fill="#e8d4b0"></path></svg>