<svg id="visual" viewBox="0 0 900 900" width="900" height="900" xmlns="http://www.w3.org/2000/svg" xmlns:xlink="http://www.w3.org/1999/xlink" version="1.1"><path d="M0 172L21.5 166C43 160 86 148 128.8 154C171.7 160 214.3 184 257.2 190C300 196 343 184 385.8 181C428.7 178 471.3 184 514.2 194.5C557 205 600 220 642.8 217C685.7 214 728.3 193 771.2 187C814 181 857 190 878.5 194.5L900 199L900 0L878.5 0C857 0 814 0 771.2 0C728.3 0 685.7 0 642.8 0C600 0 557 0 514.2 0C471.3 0 428.7 0 385.8 0C343 0 300 0 257.2 0C214.3 0 171.7 0 128.8 0C86 0 43 0 21.5 0L0 0Z" fill="#591c4a"></path><path d="M0 253L21.5 245.5C43 238 86 223 128.8 224.5C171.7 226 214.3 244 257.2 247C300 250 343 238 385.8 233.5C428.7 229 471.3 232 514.2 242.5C557 253 600 271 642.8 268C685.7 265 728.3 241 771.2 238C814 235 857 253 878.5 262L900 271L900 197L878.5 192.5C857 188 814 179 771.2 185C728.3 191 685.7 212 642.8 215C600 218 557 203 514.2 192.5C471.3 182 428.7 176 385.8 179C343 182 300 194 257.2 188C214.3 182 171.7 158 128.8 152C86 146 43 158 21.5 164L0 170Z" fill="#6e2a4f"></path><path d="M0 316L21.5 307C43 298 86 280 128.8 277C171.7 274 214.3 286 257.2 287.5C300 289 343 280 385.8 280C428.7 280 471.3 289 514.2 302.5C557 316 600 334 642.8 329.5C685.7 325 728.3 298 771.2 295C814 292 857 313 878.5 323.5L900 334L900 269L878.5 260C857 251 814 233 771.2 236C728.3 239 685.7 263 642.8 266C600 269 557 251 514.2 240.5C471.3 230 428.7 227 385.8 231.5C343 236 300 248 257.2 245C214.3 242 171.7 224 128.8 222.5C86 221 43 236 21.5 243.5L0 251Z" fill="#813a54"></path><path d="M0 352L21.5 343C43 334 86 316 128.8 314.5C171.7 313 214.3 328 257.2 329.5C300 331 343 319 385.8 319C428.7 319 471.3 331 514.2 344.5C557 358 600 373 642.8 367C685.7 361 728.3 334 771.2 331C814 328 857 349 878.5 359.5L900 370L900 332L878.5 321.5C857 311 814 290 771.2 293C728.3 296 685.7 323 642.8 327.5C600 332 557 314 514.2 300.5C471.3 287 428.7 278 385.8 278C343 278 300 287 257.2 285.5C214.3 284 171.7 272 128.8 275C86 278 43 296 21.5 305L0 314Z" fill="#924b59"></path><path d="M0 397L21.5 391C43 385 86 373 128.8 370C171.7 367 214.3 373 257.2 373C300 373 343 367 385.8 367C428.7 367 471.3 373 514.2 386.5C557 400 600 421 642.8 419.5C685.7 418 728.3 394 771.2 388C814 382 857 394 878.5 400L900 406L900 368L878.5 357.5C857 347 814 326 771.2 329C728.3 332 685.7 359 642.8 365C600 371 557 356 514.2 342.5C471.3 329 428.7 317 385.8 317C343 317 300 329 257.2 327.5C214.3 326 171.7 311 128.8 312.5C86 314 43 332 21.5 341L0 350Z" fill="#a25d60"></path><path d="M0 469L21.5 460C43 451 86 433 128.8 430C171.7 427 214.3 439 257.2 443.5C300 448 343 445 385.8 448C428.7 451 471.3 460 514.2 467.5C557 475 600 481 642.8 475C685.7 469 728.3 451 771.2 448C814 445 857 457 878.5 463L900 469L900 404L878.5 398C857 392 814 380 771.2 386C728.3 392 685.7 416 642.8 417.5C600 419 557 398 514.2 384.5C471.3 371 428.7 365 385.8 365C343 365 300 371 257.2 371C214.3 371 171.7 365 128.8 368C86 371 43 383 21.5 389L0 395Z" fill="#b07068"></path><path d="M0 496L21.5 490C43 484 86 472 128.8 472C171.7 472 214.3 484 257.2 485.5C300 487 343 478 385.8 478C428.7 478 471.3 487 514.2 496C557 505 600 514 642.8 508C685.7 502 728.3 481 771.2 478C814 475 857 490 878.5 497.5L900 505L900 467L878.5 461C857 455 814 443 771.2 446C728.3 449 685.7 467 642.8 473C600 479 557 473 514.2 465.5C471.3 458 428.7 449 385.8 446C343 443 300 446 257.2 441.5C214.3 437 171.7 425 128.8 428C86 431 43 449 21.5 458L0 467Z" fill="#bd8372"></path><path d="M0 532L21.5 526C43 520 86 508 128.8 511C171.7 514 214.3 532 257.2 536.5C300 541 343 532 385.8 532C428.7 532 471.3 541 514.2 548.5C557 556 600 562 642.8 553C685.7 544 728.3 520 771.2 517C814 514 857 532 878.5 541L900 550L900 503L878.5 495.5C857 488 814 473 771.2 476C728.3 479 685.7 500 642.8 506C600 512 557 503 514.2 494C471.3 485 428.7 476 385.8 476C343 476 300 485 257.2 483.5C214.3 482 171.7 470 128.8 470C86 470 43 482 21.5 488L0 494Z" fill="#c9977e"></path><path d="M0 622L21.5 619C43 616 86 610 128.8 610C171.7 610 214.3 616 257.2 613C300 610 343 598 385.8 601C428.7 604 471.3 622 514.2 637C557 652 600 664 642.8 656.5C685.7 649 728.3 622 771.2 614.5C814 607 857 619 878.5 625L900 631L900 548L878.5 539C857 530 814 512 771.2 515C728.3 518 685.7 542 642.8 551C600 560 557 554 514.2 546.5C471.3 539 428.7 530 385.8 530C343 530 300 539 257.2 534.5C214.3 530 171.7 512 128.8 509C86 506 43 518 21.5 524L0 530Z" fill="#d3ab8d"></path><path d="M0 829L21.5 829C43 829 86 829 128.8 818.5C171.7 808 214.3 787 257.2 782.5C300 778 343 790 385.8 793C428.7 796 471.3 790 514.2 791.5C557 793 600 802 642.8 806.5C685.7 811 728.3 811 771.2 811C814 811 857 811 878.5 811L900 811L900 629L878.5 623C857 617 814 605 771.2 612.5C728.3 620 685.7 647 642.8 654.5C600 662 557 650 514.2 635C471.3 620 428.7 602 385.8 599C343 596 300 608 257.2 611C214.3 614 171.7 608 128.8 608C86 608 43 614 21.5 617L0 620Z" fill="#dec09d"></path><path d="M0 901L21.5 901C43 901 86 901 128.8 901C171.7 901 214.3 901 257.2 901C300 901 343 901 385.8 901C428.7 901 471.3 901 514.2 901C557 901 600 901 642.8 901C685.7 901 728.3 901 771.2 901C814 901 857 901 878.5 901L900 901L900 809L878.5 809C857 809 814 809 771.2 809C728.3 809 685.7 809 642.8 804.5C600 800 557 791 514.2 789.5C471.3 788 428.7 794 385.8 791C343 788 300 776 257.2 780.5C214.3 785 171.7 806 128.8 816.5C86 827 43 827 21.5 827L0 827Z" fill="#e8d4b0"></path></svg>