<svg id="visual" viewBox="0 0 900 900" width="900" height="900" xmlns="http://www.w3.org/2000/svg" xmlns:xlink="http://www.w3.org/1999/xlink" version="1.1"><path d="M0 73L21.5 74.5C43 76 86 79 128.8 82C171.7 85 214.3 88 257.2 85C300 82 343 73 385.8 74.5C428.7 76 471.3 88 514.2 89.5C557 91 600 82 642.8 76C685.7 70 728.3 67 771.2 67C814 67 857 70 878.5 71.5L900 73L900 0L878.5 0C857 0 814 0 771.2 0C728.3 0 685.7 0 642.8 0C600 0 557 0 514.2 0C471.3 0 428.7 0 385.8 0C343 0 300 0 257.2 0C214.3 0 171.7 0 128.8 0C86 0 43 0 21.5 0L0 0Z" fill="#591c4a"></path><path d="M0 226L21.5 227.5C43 229 86 232 128.8 235C171.7 238 214.3 241 257.2 251.5C300 262 343 280 385.8 281.5C428.7 283 471.3 268 514.2 262C557 256 600 259 642.8 251.5C685.7 244 728.3 226 771.2 223C814 220 857 232 878.5 238L900 244L900 71L878.5 69.5C857 68 814 65 771.2 65C728.3 65 685.7 68 642.8 74C600 80 557 89 514.2 87.5C471.3 86 428.7 74 385.8 72.5C343 71 300 80 257.2 83C214.3 86 171.7 83 128.8 80C86 77 43 74 21.5 72.5L0 71Z" fill="#6e2a4f"></path><path d="M0 352L21.5 356.5C43 361 86 370 128.8 373C171.7 376 214.3 373 257.2 377.5C300 382 343 394 385.8 392.5C428.7 391 471.3 376 514.2 373C557 370 600 379 642.8 367C685.7 355 728.3 322 771.2 317.5C814 313 857 337 878.5 349L900 361L900 242L878.5 236C857 230 814 218 771.2 221C728.3 224 685.7 242 642.8 249.5C600 257 557 254 514.2 260C471.3 266 428.7 281 385.8 279.5C343 278 300 260 257.2 249.5C214.3 239 171.7 236 128.8 233C86 230 43 227 21.5 225.5L0 224Z" fill="#813a54"></path><path d="M0 406L21.5 409C43 412 86 418 128.8 422.5C171.7 427 214.3 430 257.2 436C300 442 343 451 385.8 448C428.7 445 471.3 430 514.2 428.5C557 427 600 439 642.8 427C685.7 415 728.3 379 771.2 371.5C814 364 857 385 878.5 395.5L900 406L900 359L878.5 347C857 335 814 311 771.2 315.5C728.3 320 685.7 353 642.8 365C600 377 557 368 514.2 371C471.3 374 428.7 389 385.8 390.5C343 392 300 380 257.2 375.5C214.3 371 171.7 374 128.8 371C86 368 43 359 21.5 354.5L0 350Z" fill="#924b59"></path><path d="M0 451L21.5 452.5C43 454 86 457 128.8 463C171.7 469 214.3 478 257.2 484C300 490 343 493 385.8 488.5C428.7 484 471.3 472 514.2 472C557 472 600 484 642.8 472C685.7 460 728.3 424 771.2 416.5C814 409 857 430 878.5 440.5L900 451L900 404L878.5 393.5C857 383 814 362 771.2 369.5C728.3 377 685.7 413 642.8 425C600 437 557 425 514.2 426.5C471.3 428 428.7 443 385.8 446C343 449 300 440 257.2 434C214.3 428 171.7 425 128.8 420.5C86 416 43 410 21.5 407L0 404Z" fill="#a25d60"></path><path d="M0 514L21.5 520C43 526 86 538 128.8 541C171.7 544 214.3 538 257.2 541C300 544 343 556 385.8 557.5C428.7 559 471.3 550 514.2 547C557 544 600 547 642.8 536.5C685.7 526 728.3 502 771.2 494.5C814 487 857 496 878.5 500.5L900 505L900 449L878.5 438.5C857 428 814 407 771.2 414.5C728.3 422 685.7 458 642.8 470C600 482 557 470 514.2 470C471.3 470 428.7 482 385.8 486.5C343 491 300 488 257.2 482C214.3 476 171.7 467 128.8 461C86 455 43 452 21.5 450.5L0 449Z" fill="#b07068"></path><path d="M0 550L21.5 556C43 562 86 574 128.8 575.5C171.7 577 214.3 568 257.2 572.5C300 577 343 595 385.8 598C428.7 601 471.3 589 514.2 583C557 577 600 577 642.8 566.5C685.7 556 728.3 535 771.2 530.5C814 526 857 538 878.5 544L900 550L900 503L878.5 498.5C857 494 814 485 771.2 492.5C728.3 500 685.7 524 642.8 534.5C600 545 557 542 514.2 545C471.3 548 428.7 557 385.8 555.5C343 554 300 542 257.2 539C214.3 536 171.7 542 128.8 539C86 536 43 524 21.5 518L0 512Z" fill="#bd8372"></path><path d="M0 604L21.5 607C43 610 86 616 128.8 617.5C171.7 619 214.3 616 257.2 620.5C300 625 343 637 385.8 638.5C428.7 640 471.3 631 514.2 628C557 625 600 628 642.8 619C685.7 610 728.3 589 771.2 584.5C814 580 857 592 878.5 598L900 604L900 548L878.5 542C857 536 814 524 771.2 528.5C728.3 533 685.7 554 642.8 564.5C600 575 557 575 514.2 581C471.3 587 428.7 599 385.8 596C343 593 300 575 257.2 570.5C214.3 566 171.7 575 128.8 573.5C86 572 43 560 21.5 554L0 548Z" fill="#c9977e"></path><path d="M0 676L21.5 676C43 676 86 676 128.8 677.5C171.7 679 214.3 682 257.2 685C300 688 343 691 385.8 689.5C428.7 688 471.3 682 514.2 682C557 682 600 688 642.8 682C685.7 676 728.3 658 771.2 655C814 652 857 664 878.5 670L900 676L900 602L878.5 596C857 590 814 578 771.2 582.5C728.3 587 685.7 608 642.8 617C600 626 557 623 514.2 626C471.3 629 428.7 638 385.8 636.5C343 635 300 623 257.2 618.5C214.3 614 171.7 617 128.8 615.5C86 614 43 608 21.5 605L0 602Z" fill="#d3ab8d"></path><path d="M0 874L21.5 872.5C43 871 86 868 128.8 868C171.7 868 214.3 871 257.2 872.5C300 874 343 874 385.8 872.5C428.7 871 471.3 868 514.2 868C557 868 600 871 642.8 872.5C685.7 874 728.3 874 771.2 874C814 874 857 874 878.5 874L900 874L900 674L878.5 668C857 662 814 650 771.2 653C728.3 656 685.7 674 642.8 680C600 686 557 680 514.2 680C471.3 680 428.7 686 385.8 687.5C343 689 300 686 257.2 683C214.3 680 171.7 677 128.8 675.5C86 674 43 674 21.5 674L0 674Z" fill="#dec09d"></path><path d="M0 901L21.5 901C43 901 86 901 128.8 901C171.7 901 214.3 901 257.2 901C300 901 343 901 385.8 901C428.7 901 471.3 901 514.2 901C557 901 600 901 642.8 901C685.7 901 728.3 901 771.2 901C814 901 857 901 878.5 901L900 901L900 872L878.5 872C857 872 814 872 771.2 872C728.3 872 685.7 872 642.8 870.5C600 869 557 866 514.2 866C471.3 866 428.7 869 385.8 870.5C343 872 300 872 257.2 870.5C214.3 869 171.7 866 128.8 866C86 866 43 869 21.5 870.5L0 872Z" fill="#e8d4b0"></path></svg>