<svg id="visual" viewBox="0 0 900 900" width="900" height="900" xmlns="http://www.w3.org/2000/svg" xmlns:xlink="http://www.w3.org/1999/xlink" version="1.1"><path d="M0 55L21.5 58C43 61 86 67 128.8 67C171.7 67 214.3 61 257.2 59.5C300 58 343 61 385.8 61C428.7 61 471.3 58 514.2 55C557 52 600 49 642.8 47.5C685.7 46 728.3 46 771.2 50.5C814 55 857 64 878.5 68.5L900 73L900 0L878.5 0C857 0 814 0 771.2 0C728.3 0 685.7 0 642.8 0C600 0 557 0 514.2 0C471.3 0 428.7 0 385.8 0C343 0 300 0 257.2 0C214.3 0 171.7 0 128.8 0C86 0 43 0 21.5 0L0 0Z" fill="#591c4a"></path><path d="M0 100L21.5 101.5C43 103 86 106 128.8 103C171.7 100 214.3 91 257.2 89.5C300 88 343 94 385.8 97C428.7 100 471.3 100 514.2 95.5C557 91 600 82 642.8 79C685.7 76 728.3 79 771.2 83.5C814 88 857 94 878.5 97L900 100L900 71L878.5 66.5C857 62 814 53 771.2 48.5C728.3 44 685.7 44 642.8 45.5C600 47 557 50 514.2 53C471.3 56 428.7 59 385.8 59C343 59 300 56 257.2 57.5C214.3 59 171.7 65 128.8 65C86 65 43 59 21.5 56L0 53Z" fill="#6e2a4f"></path><path d="M0 145L21.5 146.5C43 148 86 151 128.8 149.5C171.7 148 214.3 142 257.2 139C300 136 343 136 385.8 134.5C428.7 133 471.3 130 514.2 127C557 124 600 121 642.8 119.5C685.7 118 728.3 118 771.2 124C814 130 857 142 878.5 148L900 154L900 98L878.5 95C857 92 814 86 771.2 81.5C728.3 77 685.7 74 642.8 77C600 80 557 89 514.2 93.5C471.3 98 428.7 98 385.8 95C343 92 300 86 257.2 87.5C214.3 89 171.7 98 128.8 101C86 104 43 101 21.5 99.5L0 98Z" fill="#813a54"></path><path d="M0 271L21.5 268C43 265 86 259 128.8 257.5C171.7 256 214.3 259 257.2 257.5C300 256 343 250 385.8 244C428.7 238 471.3 232 514.2 229C557 226 600 226 642.8 229C685.7 232 728.3 238 771.2 241C814 244 857 244 878.5 244L900 244L900 152L878.5 146C857 140 814 128 771.2 122C728.3 116 685.7 116 642.8 117.5C600 119 557 122 514.2 125C471.3 128 428.7 131 385.8 132.5C343 134 300 134 257.2 137C214.3 140 171.7 146 128.8 147.5C86 149 43 146 21.5 144.5L0 143Z" fill="#924b59"></path><path d="M0 316L21.5 314.5C43 313 86 310 128.8 307C171.7 304 214.3 301 257.2 298C300 295 343 292 385.8 286C428.7 280 471.3 271 514.2 266.5C557 262 600 262 642.8 265C685.7 268 728.3 274 771.2 278.5C814 283 857 286 878.5 287.5L900 289L900 242L878.5 242C857 242 814 242 771.2 239C728.3 236 685.7 230 642.8 227C600 224 557 224 514.2 227C471.3 230 428.7 236 385.8 242C343 248 300 254 257.2 255.5C214.3 257 171.7 254 128.8 255.5C86 257 43 263 21.5 266L0 269Z" fill="#a25d60"></path><path d="M0 388L21.5 386.5C43 385 86 382 128.8 380.5C171.7 379 214.3 379 257.2 377.5C300 376 343 373 385.8 368.5C428.7 364 471.3 358 514.2 352C557 346 600 340 642.8 343C685.7 346 728.3 358 771.2 361C814 364 857 358 878.5 355L900 352L900 287L878.5 285.5C857 284 814 281 771.2 276.5C728.3 272 685.7 266 642.8 263C600 260 557 260 514.2 264.5C471.3 269 428.7 278 385.8 284C343 290 300 293 257.2 296C214.3 299 171.7 302 128.8 305C86 308 43 311 21.5 312.5L0 314Z" fill="#b07068"></path><path d="M0 433L21.5 430C43 427 86 421 128.8 421C171.7 421 214.3 427 257.2 427C300 427 343 421 385.8 418C428.7 415 471.3 415 514.2 412C557 409 600 403 642.8 404.5C685.7 406 728.3 415 771.2 413.5C814 412 857 400 878.5 394L900 388L900 350L878.5 353C857 356 814 362 771.2 359C728.3 356 685.7 344 642.8 341C600 338 557 344 514.2 350C471.3 356 428.7 362 385.8 366.5C343 371 300 374 257.2 375.5C214.3 377 171.7 377 128.8 378.5C86 380 43 383 21.5 384.5L0 386Z" fill="#bd8372"></path><path d="M0 496L21.5 490C43 484 86 472 128.8 467.5C171.7 463 214.3 466 257.2 466C300 466 343 463 385.8 463C428.7 463 471.3 466 514.2 466C557 466 600 463 642.8 466C685.7 469 728.3 478 771.2 476.5C814 475 857 463 878.5 457L900 451L900 386L878.5 392C857 398 814 410 771.2 411.5C728.3 413 685.7 404 642.8 402.5C600 401 557 407 514.2 410C471.3 413 428.7 413 385.8 416C343 419 300 425 257.2 425C214.3 425 171.7 419 128.8 419C86 419 43 425 21.5 428L0 431Z" fill="#c9977e"></path><path d="M0 640L21.5 644.5C43 649 86 658 128.8 658C171.7 658 214.3 649 257.2 649C300 649 343 658 385.8 659.5C428.7 661 471.3 655 514.2 649C557 643 600 637 642.8 644.5C685.7 652 728.3 673 771.2 673C814 673 857 652 878.5 641.5L900 631L900 449L878.5 455C857 461 814 473 771.2 474.5C728.3 476 685.7 467 642.8 464C600 461 557 464 514.2 464C471.3 464 428.7 461 385.8 461C343 461 300 464 257.2 464C214.3 464 171.7 461 128.8 465.5C86 470 43 482 21.5 488L0 494Z" fill="#d3ab8d"></path><path d="M0 703L21.5 715C43 727 86 751 128.8 754C171.7 757 214.3 739 257.2 736C300 733 343 745 385.8 743.5C428.7 742 471.3 727 514.2 718C557 709 600 706 642.8 713.5C685.7 721 728.3 739 771.2 743.5C814 748 857 739 878.5 734.5L900 730L900 629L878.5 639.5C857 650 814 671 771.2 671C728.3 671 685.7 650 642.8 642.5C600 635 557 641 514.2 647C471.3 653 428.7 659 385.8 657.5C343 656 300 647 257.2 647C214.3 647 171.7 656 128.8 656C86 656 43 647 21.5 642.5L0 638Z" fill="#dec09d"></path><path d="M0 901L21.5 901C43 901 86 901 128.8 901C171.7 901 214.3 901 257.2 901C300 901 343 901 385.8 901C428.7 901 471.3 901 514.2 901C557 901 600 901 642.8 901C685.7 901 728.3 901 771.2 901C814 901 857 901 878.5 901L900 901L900 728L878.5 732.5C857 737 814 746 771.2 741.5C728.3 737 685.7 719 642.8 711.5C600 704 557 707 514.2 716C471.3 725 428.7 740 385.8 741.5C343 743 300 731 257.2 734C214.3 737 171.7 755 128.8 752C86 749 43 725 21.5 713L0 701Z" fill="#e8d4b0"></path></svg>