<svg width="500" height="500" viewBox="0 0 500 500" fill="none" xmlns="http://www.w3.org/2000/svg">
<path fill-rule="evenodd" clip-rule="evenodd" d="M0.00146484 43.0005C37.5765 43.0005 65.9499 34.6643 89.2007 21.4973C100.492 15.1028 110.336 7.68693 119.181 0H404.442C390.113 10.6631 378.174 22.9304 367.35 34.053L367.35 34.0532C366.538 34.8879 365.732 35.7161 364.931 36.5367C350.117 51.7275 336.76 64.9101 319.488 74.691C302.677 84.2115 281.175 91.0005 250 91.0005V131C287.575 131 315.948 122.664 339.199 109.497C361.99 96.5906 378.883 79.5231 393.569 64.4637L394.966 63.0301C409.535 48.0844 421.849 35.4516 437.348 25.9641C452.65 16.5973 471.707 10 499.5 10V0H500V500H374.763C381.536 493.762 387.727 487.454 393.569 481.464L394.966 480.03C409.535 465.084 421.849 452.452 437.348 442.964C452.65 433.597 471.707 427 499.5 427V387C464.543 387 438.225 395.528 416.464 408.849C396.572 421.026 381.066 436.959 367.35 451.053C366.538 451.888 365.732 452.716 364.931 453.537C350.117 468.728 336.76 481.91 319.488 491.691C314 494.799 308.013 497.615 301.352 500H178.426C181.303 497.868 184.263 495.853 187.35 493.964C202.651 484.597 221.709 478 249.502 478V438C214.544 438 188.227 446.528 166.466 459.848C147.533 471.438 132.575 486.429 119.35 500H0V0H33.0945C23.3992 1.91369 12.4746 3.00047 0.00146484 3.00047V43.0005ZM89.2007 438.497C65.9499 451.664 37.5765 460 0.00146484 460V420C31.1764 420 52.678 413.212 69.4897 403.691C86.7611 393.91 100.119 380.728 114.933 365.537C115.733 364.716 116.539 363.888 117.351 363.053C131.068 348.959 146.573 333.026 166.466 320.849C172.382 317.227 178.636 313.959 185.308 311.121C170.24 295.178 161.001 273.668 161.001 250C161.001 245.195 161.382 240.479 162.115 235.88C156.529 241.17 150.937 246.906 144.968 253.03L143.57 254.464C128.884 269.523 111.992 286.591 89.2007 299.497C65.9499 312.664 37.5765 321 0.00146484 321V281C31.1764 281 52.678 274.211 69.4897 264.691C86.7611 254.91 100.119 241.727 114.933 226.537C115.733 225.716 116.539 224.888 117.351 224.053C131.068 209.959 146.573 194.026 166.466 181.848C188.227 168.528 214.544 160 249.502 160V161.001C249.668 161.001 249.835 161 250.001 161C284.006 161 313.556 180.07 328.541 208.099C342.023 198.901 353.056 187.606 365.342 175.027C370.962 169.273 376.844 163.251 383.343 157.038C409.948 131.604 442.594 109 499.502 109V149C456.15 149 432.892 165.008 410.984 185.951C406.521 190.218 401.919 194.959 397.074 199.95C381.411 216.088 363.214 234.834 338.99 248.586C338.998 249.057 339.001 249.528 339.001 250C339.001 299.153 299.155 339 250.001 339C249.835 339 249.668 339 249.502 338.999V339C221.709 339 202.651 345.597 187.35 354.964C171.851 364.452 159.537 377.084 144.968 392.03L143.57 393.464C128.884 408.523 111.992 425.591 89.2007 438.497ZM250 409C287.575 409 315.948 400.664 339.199 387.497C361.99 374.591 378.883 357.523 393.569 342.464L394.966 341.03C409.535 326.084 421.849 313.452 437.348 303.964C452.65 294.597 471.707 288 499.5 288V248C464.543 248 438.225 256.528 416.464 269.849C396.572 282.026 381.066 297.959 367.35 312.053C366.538 312.888 365.732 313.716 364.931 314.537C350.117 329.728 336.76 342.91 319.488 352.691C302.677 362.212 281.175 369 250 369V409ZM89.2007 160.497C65.9499 173.664 37.5765 182 0.00146484 182V142C31.1764 142 52.678 135.212 69.4897 125.691C86.7611 115.91 100.119 102.728 114.933 87.5367C115.733 86.7161 116.539 85.8879 117.351 85.0532C131.068 70.9586 146.573 55.0257 166.466 42.8485C188.227 29.5278 214.544 21 249.502 21V61C221.709 61 202.651 67.5973 187.35 76.9641C171.851 86.4516 159.537 99.0844 144.968 114.03L143.57 115.464C128.884 130.523 111.992 147.591 89.2007 160.497ZM201.001 250C201.001 222.938 222.94 201 250.001 201C277.063 201 299.001 222.938 299.001 250C299.001 277.062 277.063 299 250.001 299C222.94 299 201.001 277.062 201.001 250Z" fill="#DF0000"/>
</svg>
