<svg width="500" height="717" viewBox="0 0 500 717" fill="none" xmlns="http://www.w3.org/2000/svg">
<path d="M0.00146484 558C137.501 558 124.001 437 249.502 437" stroke="#591C4A" stroke-width="40"/>
<path d="M0.00146484 419C137.501 419 124.001 298 249.502 298" stroke="#591C4A" stroke-width="40"/>
<path d="M250 229C387.5 229 374 108 499.5 108" stroke="#591C4A" stroke-width="40"/>
<path d="M250 507C387.5 507 374 386 499.5 386" stroke="#591C4A" stroke-width="40"/>
<path d="M250 646C387.5 646 374 525 499.5 525" stroke="#591C4A" stroke-width="40"/>
<path d="M0.00146484 697C137.501 697 124.001 576 249.502 576" stroke="#591C4A" stroke-width="40"/>
<path d="M0.00146484 280C137.501 280 124.001 159 249.502 159" stroke="#591C4A" stroke-width="40"/>
<path d="M0.00146484 141C137.501 141 124.001 20 249.502 20" stroke="#591C4A" stroke-width="40"/>
<path d="M499.502 247C399.242 247 387.694 324.223 317 355.286" stroke="#591C4A" stroke-width="40"/>
<circle cx="250.001" cy="368" r="69" stroke="#591C4A" stroke-width="40"/>
</svg>
