<svg width="500" height="500" viewBox="0 0 500 500" fill="none" xmlns="http://www.w3.org/2000/svg">
<path d="M0 480C66.0973 480 65.1531 362.327 125.827 423C186.5 483.673 184.329 359 249.5 359" stroke="#591C4A" stroke-width="40"/>
<path d="M250 480C316.097 480 315.153 362.327 375.827 423C436.5 483.673 434.329 359 499.5 359" stroke="#591C4A" stroke-width="40"/>
<path d="M0 301C66.0973 301 65.1531 183.327 125.827 244C153.182 271.356 167.763 261.034 181.5 241.449" stroke="#591C4A" stroke-width="40"/>
<path d="M499.5 180C434.329 180 436.5 304.673 375.827 244C348.002 216.176 333.136 225.859 318.821 244.5" stroke="#591C4A" stroke-width="40"/>
<path d="M0 141C66.0973 141 65.1531 23.3265 125.827 84C186.5 144.673 184.329 20 249.5 20" stroke="#591C4A" stroke-width="40"/>
<path d="M250 141C316.097 141 315.153 23.3265 375.827 84C436.5 144.673 434.329 20 499.5 20" stroke="#591C4A" stroke-width="40"/>
<circle cx="250" cy="250" r="69" stroke="#591C4A" stroke-width="40"/>
</svg>
