<svg width="501" height="500" viewBox="0 0 501 500" fill="none" xmlns="http://www.w3.org/2000/svg">
<circle cx="250" cy="250" r="69" stroke="#591C4A" strokeWidth="40"/>
<path d="M0 248.999C78.5 248.999 90 188 179.5 225M316 273C390 317.5 439.5 248.999 500 249.499" stroke="#591C4A" strokeWidth="40"/>
<path d="M500 124.507C421.5 124.507 425.999 21.4373 353 21.0002C269.5 20.5002 240 78.003 165 78.003C90.0001 78.003 97.5 78.0032 0 78.0032" stroke="#591C4A" strokeWidth="40"/>
<path d="M0 357C78.5 357 88.5013 478.563 161.5 479C245 479.5 285 400.499 360 400.499C435 400.499 444 400.5 500 400.5" stroke="#591C4A" strokeWidth="40"/>
</svg>
