<svg width="501" height="500" viewBox="0 0 501 500" fill="none" xmlns="http://www.w3.org/2000/svg">
<circle cx="250" cy="250" r="69" stroke="#591C4A" strokeWidth="40"/>
<path d="M0 248.999C78.5 248.999 80 128.5 179.5 225M316 273C442.5 337.5 439.5 248.999 500 249.499" stroke="#591C4A" strokeWidth="40"/>
<path d="M0 430.506C78.5 430.506 88.5013 375.439 161.5 375.002C245 374.502 260 468.002 335 468.002C410 468.002 402.5 384.002 500 384.002" stroke="#591C4A" strokeWidth="40"/>
<path d="M500 64.0005C421.5 64.0005 411.499 131.064 338.5 131.501C255 132.001 215 27 140 27C65.0001 27 87.0001 93 0 93" stroke="#591C4A" strokeWidth="40"/>
</svg>
