<svg width="502" height="502" viewBox="0 0 502 502" fill="none" xmlns="http://www.w3.org/2000/svg">
<path d="M-6.10352e-05 359.001C78.4999 359.001 88.5013 480.564 161.5 481.001C245 481.501 285 343 360 343C435 343 444 343 500 343" stroke="#591C4A" strokeWidth="40"/>
<path d="M-6.10352e-05 237C78.4999 237 88.5013 358.563 161.5 359C245 359.5 287 440.5 362 440.5C437 440.5 446 440.5 502 440.5" stroke="#591C4A" strokeWidth="40"/>
<path d="M-6.10352e-05 122C78.4999 122 90.0013 252.063 163 252.5M500 119C444 119 435 119 360 119C285 119 296.5 182.5 247.5 182.5" stroke="#591C4A" strokeWidth="40"/>
<path d="M-6.10352e-05 21.0001C78.4999 21.0001 88.5013 142.563 161.5 143C245 143.5 285 20.0001 360 20.0001C435 20.0001 444 20.0001 500 20.0001" stroke="#591C4A" strokeWidth="40"/>
<circle cx="250" cy="252" r="69" stroke="#591C4A" strokeWidth="40"/>
</svg>
