<svg width="501" height="500" viewBox="0 0 501 500" fill="none" xmlns="http://www.w3.org/2000/svg">
<circle cx="250" cy="250" r="69" stroke="#591C4A" stroke-width="40"/>
<path d="M0 248.999C78.5 248.999 80 128.5 179.5 225M316 273C442.5 337.5 439.5 248.999 500 249.499" stroke="#591C4A" stroke-width="40"/>
<path d="M500 75.5058C421.5 75.5058 411.499 20.4391 338.5 20.002C255 19.502 240 113.002 165 113.002C90.0001 113.002 97.5 29.0023 0 29.0023" stroke="#591C4A" stroke-width="40"/>
<path d="M0 412.001C78.5 412.001 88.5013 479.064 161.5 479.501C245 480.001 285 375 360 375C435 375 413 441 500 441" stroke="#591C4A" stroke-width="40"/>
</svg>
