<svg width="501" height="500" viewBox="0 0 501 500" fill="none" xmlns="http://www.w3.org/2000/svg">
<circle cx="144" cy="255.844" r="69" stroke="#E8D4B0" stroke-width="40"/>
<path d="M148 168C148 131.5 123.141 103.729 148 80C171.729 57.3496 197.5 80 232 80" stroke="#E8D4B0" stroke-width="40" stroke-linejoin="round"/>
<path d="M148 344C148 368 128.493 397.152 148 419C169.848 443.47 206 419 232 419" stroke="#E8D4B0" stroke-width="40" stroke-linejoin="round"/>
<path d="M84.5 257.5H0" stroke="#E8D4B0" stroke-width="40" stroke-linejoin="round"/>
<path d="M500 80.0012C477.075 79.8807 466 125.704 422 125.5C378 125.296 358 31 315 31C275 31 251.458 79.5102 232 80.0012" stroke="#E8D4B0" stroke-width="40" stroke-linejoin="round"/>
<path d="M500 419.001C477.075 418.881 466 464.704 422 464.5C378 464.296 358 370 315 370C275 370 251.458 418.51 232 419.001" stroke="#E8D4B0" stroke-width="40" stroke-linejoin="round"/>
<path d="M500 259.001C477.075 258.881 466 304.704 422 304.5C378 304.296 358 210 315 210C275 210 251.458 258.51 232 259.001" stroke="#E8D4B0" stroke-width="40" stroke-linejoin="round"/>
</svg>
