<svg width="501" height="500" viewBox="0 0 501 500" fill="none" xmlns="http://www.w3.org/2000/svg">
<circle cx="250" cy="250" r="69" stroke="#591C4A" strokeWidth="40"/>
<path d="M0 301C78.5 301 80 128.5 179.5 225M316 273C442.5 337.5 439.5 180 500 180.5" stroke="#591C4A" strokeWidth="40"/>
<path d="M500 430.506C421.5 430.506 411.499 375.439 338.5 375.002C255 374.502 240 468.002 165 468.002C90.0001 468.002 97.5 384.002 0 384.002" stroke="#591C4A" strokeWidth="40"/>
<path d="M0 64.0005C78.5 64.0005 88.5013 131.064 161.5 131.501C245 132.001 285 27 360 27C435 27 413 93 500 93" stroke="#591C4A" strokeWidth="40"/>
</svg>
