<svg width="500" height="500" viewBox="0 0 500 500" fill="none" xmlns="http://www.w3.org/2000/svg">
<path d="M178 390L59 390L59 258" stroke="black" stroke-width="40" stroke-linejoin="round"/>
<path d="M125 312L203 389.5L125 467" stroke="black" stroke-width="40"/>
<path d="M445 118L196.295 117.984" stroke="black" stroke-width="40"/>
<path d="M425 222L425 101" stroke="black" stroke-width="40"/>
<path d="M343 222L343 101" stroke="black" stroke-width="40"/>
<circle cx="131.975" cy="124.975" r="77.975" stroke="black" stroke-width="40"/>
<path d="M280.165 367.245C234.232 321.061 326.097 321.061 280.165 274.877L449.694 274.877C495.626 321.061 403.762 321.061 449.694 367.245C495.626 413.429 401.472 415.732 447.659 462.172L278.129 462.172C231.942 415.732 326.097 413.429 280.165 367.245Z" stroke="black" stroke-width="40" stroke-linejoin="round"/>
<line x1="318" y1="335" x2="392" y2="335" stroke="black" stroke-width="40"/>
<line x1="336" y1="394" x2="410" y2="394" stroke="black" stroke-width="40"/>
</svg>
