<svg width="500" height="500" viewBox="0 0 500 500" fill="none" xmlns="http://www.w3.org/2000/svg">
<path d="M407 365.704C329.979 303.655 330.739 417.926 253.718 355.876C176.698 293.826 169.448 418.269 92 355.876" stroke="black" stroke-width="40"/>
<path d="M33 413V87C33 64.9086 50.9086 47 73 47H419.26C446.178 47 468 68.8345 468 95.7688V404.231C468 431.165 446.169 453 419.251 453H355.285H73C50.9086 453 33 435.091 33 413Z" stroke="black" stroke-width="40"/>
<line x1="117" y1="102" x2="117" y2="289" stroke="black" stroke-width="40"/>
<line x1="202" y1="102" x2="202" y2="238" stroke="black" stroke-width="40"/>
<line x1="287" y1="102" x2="287" y2="238" stroke="black" stroke-width="40"/>
<line x1="375" y1="102" x2="375" y2="289" stroke="black" stroke-width="40"/>
</svg>
