<svg width="500" height="500" viewBox="0 0 500 500" fill="none" xmlns="http://www.w3.org/2000/svg">
<path d="M411 368.453C332.023 304.726 332.803 422.086 253.826 358.359C174.849 294.632 167.414 422.439 88 358.359" stroke="black" stroke-width="40"/>
<path d="M54 393V106C54 83.9086 71.9086 66 94 66H402.966C427.285 66 447 85.7371 447 110.084V388.916C447 413.263 427.277 433 402.958 433H345.168H94C71.9086 433 54 415.091 54 393Z" stroke="black" stroke-width="40"/>
<line x1="121" y1="116" x2="121" y2="278" stroke="black" stroke-width="40"/>
<line x1="176" y1="116" x2="176" y2="209" stroke="black" stroke-width="40"/>
<line x1="230" y1="116" x2="230" y2="250" stroke="black" stroke-width="40"/>
<line x1="284" y1="116" x2="284" y2="278" stroke="black" stroke-width="40"/>
<line x1="337" y1="116" x2="337" y2="209" stroke="black" stroke-width="40"/>
<line x1="390" y1="116" x2="390" y2="278" stroke="black" stroke-width="40"/>
</svg>
