<svg width="500" height="500" viewBox="0 0 500 500" fill="none" xmlns="http://www.w3.org/2000/svg">
<path d="M460 213C460 306.595 460 324.713 460 391.931C460 400.87 457.356 409.721 452.22 417.98C447.083 426.238 439.554 433.742 430.063 440.063C420.572 446.384 409.305 451.398 396.904 454.819C384.503 458.239 371.212 460 357.79 460H212" stroke="black" strokeWidth="40" strokeLinejoin="round"/>
<path d="M40 291C40 195.89 40 177.478 40 109.171C40 100.088 42.4412 91.0928 47.1843 82.7005C51.9273 74.3083 58.8792 66.6829 67.6432 60.2598C76.4071 53.8366 86.8114 48.7415 98.2621 45.2653C109.713 41.7891 121.985 40 134.38 40L269 40" stroke="black" strokeWidth="40" strokeLinejoin="round"/>
<path d="M133.409 133.278C253.183 133.348 132.181 251.755 251.955 251.824C371.73 251.894 257.334 377.571 377.772 377.641" stroke="black" strokeWidth="40"/>
<path d="M460 115C460 156.421 426.421 190 385 190C343.579 190 310 156.421 310 115C310 73.5786 343.579 40 385 40C426.421 40 460 73.5786 460 115Z" stroke="black" strokeWidth="40"/>
<path d="M190 385C190 426.421 156.421 460 115 460C73.5786 460 40 426.421 40 385C40 343.579 73.5786 310 115 310C156.421 310 190 343.579 190 385Z" stroke="black" strokeWidth="40"/>
</svg>
