<svg width="500" height="500" viewBox="0 0 500 500" fill="none" xmlns="http://www.w3.org/2000/svg">
<path d="M179 250C179 277.614 156.614 300 129 300C101.386 300 79 277.614 79 250C79 222.386 101.386 200 129 200C156.614 200 179 222.386 179 250Z" stroke="black" strokeWidth="40"/>
<path d="M420 250C420 277.614 397.614 300 370 300C342.386 300 320 277.614 320 250C320 222.386 342.386 200 370 200C397.614 200 420 222.386 420 250Z" stroke="black" strokeWidth="40"/>
<path d="M249.589 87C330.688 171.845 168.489 171.008 249.589 255.853C330.688 340.698 168.04 348.685 249.589 434" stroke="black" strokeWidth="40"/>
<path d="M216.5 83H60C37.9086 83 20 100.909 20 123V376C20 398.091 37.9086 416 60 416H186" stroke="black" strokeWidth="40"/>
<path d="M307.5 83H440C462.091 83 480 100.909 480 123V376C480 398.091 462.091 416 440 416H282" stroke="black" strokeWidth="40"/>
</svg>
