<svg width="500" height="500" viewBox="0 0 500 500" fill="none" xmlns="http://www.w3.org/2000/svg">
<path d="M140 90C140 117.614 117.614 140 90 140C62.3858 140 40 117.614 40 90C40 62.3858 62.3858 40 90 40C117.614 40 140 62.3858 140 90Z" stroke="black" stroke-width="40"/>
<path d="M140 410C140 437.614 117.614 460 90 460C62.3858 460 40 437.614 40 410C40 382.386 62.3858 360 90 360C117.614 360 140 382.386 140 410Z" stroke="black" stroke-width="40"/>
<path d="M460 250C460 277.614 437.614 300 410 300C382.386 300 360 277.614 360 250C360 222.386 382.386 200 410 200C437.614 200 460 222.386 460 250Z" stroke="black" stroke-width="40"/>
<path d="M157 410C219.327 410 157 333.897 219.327 333.897C281.655 333.897 219.327 254 282 254" stroke="black" stroke-width="40"/>
<path d="M157 94C219.327 94 157 172.054 219.327 172.054C281.655 172.054 219.327 254 282 254" stroke="black" stroke-width="40"/>
<path d="M282 254H345" stroke="black" stroke-width="40"/>
</svg>
