<svg width="500" height="506" viewBox="0 0 500 506" fill="none" xmlns="http://www.w3.org/2000/svg">
<circle cx="356" cy="262" r="69" stroke="#E8D4B0" stroke-width="40"/>
<path d="M268 263H-3.05176e-05" stroke="#E8D4B0" stroke-width="40" stroke-linejoin="round"/>
<path d="M500 263H435" stroke="#E8D4B0" stroke-width="40" stroke-linejoin="round"/>
<path d="M234.925 243C235.034 222.47 193.817 212.552 194 173.149C194.184 133.746 279 115.836 279 77.3284C279 41.5075 235.367 20.4252 234.925 3" stroke="#E8D4B0" stroke-width="40" stroke-linejoin="round"/>
<path d="M76.0749 243C75.9664 222.47 117.183 212.552 116.999 173.149C116.816 133.746 32 115.836 32 77.3284C32 41.5075 75.6332 20.4252 76.0749 3" stroke="#E8D4B0" stroke-width="40" stroke-linejoin="round"/>
<path d="M125.26 283C125.139 301.648 171.205 310.657 170.999 346.448C170.794 382.239 76 398.507 76 433.485C76 466.022 124.767 485.172 125.26 501" stroke="#E8D4B0" stroke-width="40" stroke-linejoin="round"/>
</svg>
