<svg width="500" height="500" viewBox="0 0 500 500" fill="none" xmlns="http://www.w3.org/2000/svg">
<path d="M463 437.5C426.388 437.619 412.769 374.8 342.5 375C272.231 375.201 266.172 437.5 197.5 437.5C133.619 437.5 68.0749 387.76 37 387.277" stroke="#E8D4B0" stroke-width="40" stroke-linejoin="round"/>
<path d="M463 342.5C426.388 342.619 412.769 279.8 342.5 280C272.231 280.201 266.172 342.5 197.5 342.5C133.619 342.5 68.0749 292.76 37 292.277" stroke="#E8D4B0" stroke-width="40" stroke-linejoin="round"/>
<path d="M169 144L50.5 181.5C101.414 241.835 195.827 310.885 236.5 322.284L328.5 279C395 264.5 411.5 183.5 444 134.5L169 144Z" fill="#E8D4B0" stroke="#E8D4B0" stroke-width="40" stroke-linejoin="bevel"/>
<path d="M271 142V99.4808M271 99.4808V43L202 70.9231L271 99.4808Z" stroke="#E8D4B0" stroke-width="40"/>
</svg>
