<svg width="500" height="500" viewBox="0 0 500 500" fill="none" xmlns="http://www.w3.org/2000/svg">
<path d="M36.9945 206.364C41.2919 191.191 49.6929 182.98 60.3184 178.892C71.4086 174.625 85.7474 174.553 101.934 177.729C133.792 183.981 169.491 202.138 193.12 217.412L192.63 218.095L245.63 256.095L254.37 243.905L201.894 206.281L202.378 205.54C177.99 189.619 139.835 169.881 104.823 163.01C87.3344 159.578 69.7732 159.182 54.9321 164.892C39.6264 170.781 28.0648 182.848 22.5622 202.276C15.4252 227.474 27.6258 254.562 45.944 279.978C64.5257 305.761 91.0057 331.993 116.35 356.183C120.706 360.34 125.021 364.431 129.26 368.449L129.263 368.452C149.974 388.086 168.838 405.97 181.506 421.241C189.189 430.502 193.897 438.011 195.63 443.745C196.464 446.502 196.471 448.412 196.156 449.727C195.87 450.923 195.196 452.167 193.561 453.489C184.906 460.491 172.002 462.249 155.643 459.436C139.441 456.65 121.304 449.606 103.835 441.026C68.952 423.891 38.3895 401.463 34.3343 398.362L25.2225 410.278C29.6673 413.676 61.1047 436.748 97.2218 454.489C115.253 463.346 134.866 471.083 153.101 474.219C171.18 477.328 189.4 476.149 202.995 465.151C206.924 461.973 209.608 457.963 210.744 453.22C211.851 448.597 211.343 443.885 209.989 439.405C207.347 430.664 200.993 421.239 193.051 411.664C179.751 395.632 160.048 376.958 139.346 357.338C135.159 353.37 130.931 349.363 126.707 345.332C101.301 321.084 75.7811 295.723 58.1128 271.208C40.1809 246.328 31.8816 224.416 36.9945 206.364Z" fill="#591C4A"/>
</svg>
