<svg width="500" height="500" viewBox="0 0 500 500" fill="none" xmlns="http://www.w3.org/2000/svg">
<path d="M88.9608 361C88.9608 388.614 110.908 411 137.98 411C165.053 411 187 388.614 187 361C187 333.386 165.053 311 137.98 311C110.908 311 88.9608 333.386 88.9608 361Z" stroke="black" strokeWidth="40"/>
<path d="M309.039 131C309.039 158.614 331.864 181 360.02 181C388.175 181 411 158.614 411 131C411 103.386 388.175 81 360.02 81C331.864 81 309.039 103.386 309.039 131Z" stroke="black" strokeWidth="40"/>
<path d="M431 431C250.5 431 431 250.5 250.5 250.5C70 250.5 250.5 61 69 61" stroke="black" strokeWidth="40"/>
</svg>
