<svg width="500" height="500" viewBox="0 0 500 500" fill="none" xmlns="http://www.w3.org/2000/svg">
<path d="M411.039 361C411.039 388.614 389.092 411 362.02 411C334.947 411 313 388.614 313 361C313 333.386 334.947 311 362.02 311C389.092 311 411.039 333.386 411.039 361Z" stroke="black" strokeWidth="40"/>
<path d="M190.961 131C190.961 158.614 168.136 181 139.98 181C111.825 181 89 158.614 89 131C89 103.386 111.825 81 139.98 81C168.136 81 190.961 103.386 190.961 131Z" stroke="black" strokeWidth="40"/>
<path d="M69 431C249.5 431 69 250.5 249.5 250.5C430 250.5 249.5 61 431 61" stroke="black" strokeWidth="40"/>
</svg>
