<svg width="500" height="500" viewBox="0 0 500 500" fill="none" xmlns="http://www.w3.org/2000/svg">
<path d="M214 311L298 395L214 479" stroke="black" strokeWidth="40"/>
<path d="M298 189L214 105L298 21" stroke="black" strokeWidth="40"/>
<path d="M156 105C76 105 12 118.5 115 221.5C218 324.5 76 275.67 76 315.294C76 325.8 78.0692 336.203 82.0896 345.909C86.11 355.615 92.0028 364.434 99.4315 371.862C106.86 379.291 115.679 385.184 125.385 389.204C135.091 393.225 145.494 395.294 156 395.294H270.11" stroke="black" strokeWidth="40" strokeLinejoin="round"/>
<path d="M354.11 395.294C434.11 395.294 498.11 381.794 395.11 278.794C292.11 175.794 434.11 224.624 434.11 185C434.11 174.494 432.041 164.091 428.02 154.385C424 144.679 418.107 135.86 410.679 128.431C403.25 121.003 394.431 115.11 384.725 111.09C375.019 107.069 364.616 105 354.11 105L240 105" stroke="black" strokeWidth="40" strokeLinejoin="round"/>
</svg>
