<svg width="500" height="500" viewBox="0 0 500 500" fill="none" xmlns="http://www.w3.org/2000/svg">
<path d="M234 331L298 395L234 459" stroke="black" strokeWidth="40"/>
<path d="M76 105C76 215 76 236.294 76 315.294C76 325.8 78.0693 336.203 82.0896 345.909C86.11 355.615 92.0028 364.434 99.4315 371.862C106.86 379.291 115.679 385.184 125.385 389.204C135.091 393.225 145.494 395.294 156 395.294H270.11" stroke="black" strokeWidth="40" strokeLinejoin="round"/>
<path d="M266 169L202 105L266 41" stroke="black" strokeWidth="40"/>
<path d="M424 395C424 285 424 263.706 424 184.706C424 174.2 421.931 163.797 417.91 154.091C413.89 144.385 407.997 135.566 400.569 128.138C393.14 120.709 384.321 114.816 374.615 110.796C364.909 106.775 354.506 104.706 344 104.706L229.89 104.706" stroke="black" strokeWidth="40" strokeLinejoin="round"/>
</svg>
