<svg width="500" height="500" viewBox="0 0 500 500" fill="none" xmlns="http://www.w3.org/2000/svg">
<path d="M319 250.138C319 287.77 288.108 318.276 250 318.276C211.892 318.276 181 287.77 181 250.138C181 212.506 211.892 182 250 182C288.108 182 319 212.506 319 250.138Z" stroke="#E8D4B0" stroke-width="40"/>
<path d="M66.0002 37C65.8815 73.6116 128.701 87.2314 128.5 157.5C128.299 227.769 66.0002 233.828 66.0002 302.5C66.0002 366.381 115.74 431.925 116.223 463" stroke="#E8D4B0" stroke-width="40" stroke-linejoin="round"/>
<path d="M433.5 463C433.619 426.388 370.8 412.769 371 342.5C371.201 272.231 433.5 266.172 433.5 197.5C433.5 133.619 383.76 68.0749 383.277 37" stroke="#E8D4B0" stroke-width="40" stroke-linejoin="round"/>
</svg>
