<svg width="50" height="50" viewBox="0 0 500 500" fill="none" xmlns="http://www.w3.org/2000/svg">
<mask id="path-1-inside-1_29_16" fill="white">
<path d="M250 250C250 216.848 236.83 185.054 213.388 161.612C189.946 138.17 158.152 125 125 125C91.8479 125 60.0537 138.17 36.6117 161.612C13.1696 185.054 5.00582e-06 216.848 0 250L37.5 250C37.5 226.794 46.7187 204.538 63.1282 188.128C79.5376 171.719 101.794 162.5 125 162.5C148.206 162.5 170.462 171.719 186.872 188.128C203.281 204.538 212.5 226.794 212.5 250H250Z"/>
</mask>
<path d="M250 250C250 216.848 236.83 185.054 213.388 161.612C189.946 138.17 158.152 125 125 125C91.8479 125 60.0537 138.17 36.6117 161.612C13.1696 185.054 5.00582e-06 216.848 0 250L37.5 250C37.5 226.794 46.7187 204.538 63.1282 188.128C79.5376 171.719 101.794 162.5 125 162.5C148.206 162.5 170.462 171.719 186.872 188.128C203.281 204.538 212.5 226.794 212.5 250H250Z" stroke="black" strokeWidth="80" mask="url(#path-1-inside-1_29_16)"/>
<mask id="path-2-inside-2_29_16" fill="white">
<path d="M500 250C500 266.415 496.767 282.67 490.485 297.835C484.203 313.001 474.996 326.781 463.388 338.388C451.781 349.996 438.001 359.203 422.835 365.485C407.67 371.767 391.415 375 375 375C358.585 375 342.33 371.767 327.165 365.485C311.999 359.203 298.219 349.996 286.612 338.388C275.004 326.781 265.797 313.001 259.515 297.835C253.233 282.67 250 266.415 250 250L287.5 250C287.5 261.491 289.763 272.869 294.161 283.485C298.558 294.101 305.003 303.747 313.128 311.872C321.253 319.997 330.899 326.442 341.515 330.839C352.131 335.237 363.509 337.5 375 337.5C386.491 337.5 397.869 335.237 408.485 330.839C419.101 326.442 428.747 319.997 436.872 311.872C444.997 303.747 451.442 294.101 455.839 283.485C460.237 272.869 462.5 261.491 462.5 250H500Z"/>
</mask>
<path d="M500 250C500 266.415 496.767 282.67 490.485 297.835C484.203 313.001 474.996 326.781 463.388 338.388C451.781 349.996 438.001 359.203 422.835 365.485C407.67 371.767 391.415 375 375 375C358.585 375 342.33 371.767 327.165 365.485C311.999 359.203 298.219 349.996 286.612 338.388C275.004 326.781 265.797 313.001 259.515 297.835C253.233 282.67 250 266.415 250 250L287.5 250C287.5 261.491 289.763 272.869 294.161 283.485C298.558 294.101 305.003 303.747 313.128 311.872C321.253 319.997 330.899 326.442 341.515 330.839C352.131 335.237 363.509 337.5 375 337.5C386.491 337.5 397.869 335.237 408.485 330.839C419.101 326.442 428.747 319.997 436.872 311.872C444.997 303.747 451.442 294.101 455.839 283.485C460.237 272.869 462.5 261.491 462.5 250H500Z" stroke="black" strokeWidth="80" mask="url(#path-2-inside-2_29_16)"/>
</svg>
