<svg width="500" height="500" viewBox="0 0 500 500" fill="none" xmlns="http://www.w3.org/2000/svg">
<path d="M319 250.138C319 287.77 288.108 318.276 250 318.276C211.892 318.276 181 287.77 181 250.138C181 212.506 211.892 182 250 182C288.108 182 319 212.506 319 250.138Z" stroke="#E8D4B0" stroke-width="40"/>
<path d="M33 476C68.37 303.607 71.937 311.546 169 268" stroke="#E8D4B0" stroke-width="40"/>
<path d="M468 476C432.37 303.607 428.777 311.546 331 268" stroke="#E8D4B0" stroke-width="40"/>
<path d="M459 52.0002C422.388 51.8816 408.769 114.701 338.5 114.5C268.231 114.299 262.172 52.0002 193.5 52.0002C129.619 52.0002 64.0749 101.74 33 102.223" stroke="#E8D4B0" stroke-width="40" stroke-linejoin="round"/>
<path d="M459 151C422.388 150.882 408.769 213.701 338.5 213.5C268.231 213.299 262.172 151 193.5 151C129.619 151 64.0749 200.74 33 201.223" stroke="#E8D4B0" stroke-width="40" stroke-linejoin="round"/>
</svg>
